<?xml version="1.0" encoding="utf-8"?>
<!-- Generator: Adobe Illustrator 23.0.5, SVG Export Plug-In . SVG Version: 6.00 Build 0)  -->
<svg version="1.1" id="Layer_1" xmlns="http://www.w3.org/2000/svg" xmlns:xlink="http://www.w3.org/1999/xlink" x="0px" y="0px"
	 viewBox="0 0 200 200" style="enable-background:new 0 0 200 200;" xml:space="preserve">
<style type="text/css">
	.st0{fill:#070065;}
	.st1{fill:#FFF700;}
</style>
<g id="Group_1" transform="translate(-1659 -116)">
	<path id="Path_1" class="st0" d="M1759.2,116.1c55.1,0,99.8,44.7,99.8,99.8s-44.7,99.8-99.8,99.8c-55.1,0-99.8-44.7-99.8-99.8
		S1704.1,116.1,1759.2,116.1z"/>
	<path id="Subtraction_1" class="st1" d="M1740.8,271c-29,0-52.5-23.5-52.5-52.5c0-13.9,5.5-27.3,15.4-37.1
		c19.2-19.2,49.9-20.6,70.7-3.3c-5.5-2.8-11.6-4.3-17.8-4.2c-21.8,0-39.4,17.7-39.4,39.4c0,21.8,17.7,39.4,39.4,39.4
		c15,0,28.7-8.5,35.3-22C1786.3,254.3,1765.1,271.1,1740.8,271z"/>
	<path id="Polygon_2" class="st1" d="M1823.5,171.2l3,7.7l8.8,0.3l-6.9,5.1l2.4,7.9l-7.3-4.6l-7.3,4.6l2.4-7.9l-6.9-5.1l8.8-0.3
		L1823.5,171.2z"/>
	<path id="Polygon_4" class="st1" d="M1810.4,247.4l3,7.7l8.8,0.3l-6.9,5.1l2.4,7.9l-7.3-4.6l-7.3,4.6l2.4-7.9l-6.9-5.1l8.8-0.3
		L1810.4,247.4z"/>
	<path id="Polygon_3" class="st1" d="M1752.6,137.1l3,7.7l8.8,0.3l-6.9,5.1l2.4,7.9l-7.3-4.6l-7.3,4.6l2.4-7.9l-6.9-5.1l8.8-0.3
		L1752.6,137.1z"/>
</g>
</svg>
