<?xml version="1.0" encoding="utf-8"?>
<!-- Generator: Adobe Illustrator 23.0.5, SVG Export Plug-In . SVG Version: 6.00 Build 0)  -->
<svg version="1.1" id="Layer_1" xmlns="http://www.w3.org/2000/svg" xmlns:xlink="http://www.w3.org/1999/xlink" x="0px" y="0px"
	 viewBox="0 0 200 200" style="enable-background:new 0 0 200 200;" xml:space="preserve">
<style type="text/css">
	.st0{fill:#3EB4F8;}
	.st1{fill:#FEFF00;}
	.st2{fill:#FFFFFF;}
</style>
<path id="Path_1" class="st0" d="M100.7,0.1c54.9,0,99.3,44.5,99.3,99.3s-44.5,99.3-99.3,99.3S1.4,154.2,1.4,99.4
	S45.8,0.1,100.7,0.1z"/>
<circle id="Ellipse_6" class="st1" cx="100.3" cy="102" r="47"/>
<path id="Union_1" class="st2" d="M37.6,148c0-4.3,1.3-8.6,3.7-12.2c0.7-11.7,10.4-20.8,22.1-20.7c7,0,13.6,3.3,17.8,8.8
	c2.6-1,5.3-1.5,8.1-1.5c6.4,0,12.4,2.7,16.6,7.4c4.2-4.7,10.3-7.4,16.6-7.4c12.2,0,22.1,9.8,22.2,22c-0.1,12.2-10,22-22.2,22
	c-6.4,0-12.4-2.7-16.6-7.4c-4.2,4.7-10.3,7.4-16.6,7.4c-4.6,0-9-1.4-12.7-4c-4.2,4.9-10.4,7.7-16.8,7.6
	C47.6,170,37.6,160.2,37.6,148z"/>
</svg>
