<?xml version="1.0" encoding="utf-8"?>
<!-- Generator: Adobe Illustrator 23.0.5, SVG Export Plug-In . SVG Version: 6.00 Build 0)  -->
<svg version="1.1" id="Layer_1" xmlns="http://www.w3.org/2000/svg" xmlns:xlink="http://www.w3.org/1999/xlink" x="0px" y="0px"
	 viewBox="0 0 1920 1080" style="enable-background:new 0 0 1920 1080;" xml:space="preserve">
<style type="text/css">
	.st0{fill:#679275;}
</style>
<path id="wave_1_" class="st0" d="M-268.6,789.6h21.9c21.9,0,66.2,0,109.9,24.3c43.9,24.3,88.3,72.6,132,96.9
	c43.9,24.3,88.3,24.3,132,0c43.9-24.3,88.3-72.6,132-113c43.9-40.8,88.3-72.4,132-88.9c43.9-16.2,88.3-16.2,132-32.2
	c43.9-16.5,88.3-48.2,132-48.5c43.9,0.3,88.3,32,132,64.5c43.9,32.7,88.3,64.2,132,64.5c43.9-0.3,88.3-32,132-16.2
	c43.9,15.8,88.3,81,132,137.1c43.9,56.6,88.3,104.9,132,113c43.9,7.8,88.3-23.9,132-80.7c43.9-56.8,88.3-137,132-129.2
	c43.9,8.1,88.3,104.9,132,88.9c43.9-16.5,88.3-145,132-193.7c43.9-48.2,88.3-16.5,132,48.5c43.9,64.5,88.3,161.4,132,193.7
	c43.9,32,88.3,0.3,132,8.1c43.9,8.1,88.3,56.6,132,80.7c43.9,24.3,88.3,24.3,132,0c43.9-24.3,88.3-72.6,132-129.2
	c43.9-56.1,88.3-121.4,132-113c43.9,8.4,88.3,88.4,109.7,129.2l22.3,40.3V1080h-3168V789.6z"/>
</svg>
